<?xml version="1.0" encoding="UTF-8" standalone="no"?>
<svg
   height="24"
   viewBox="0 0 24 24"
   width="24"
   version="1.1"
   id="svg4566"
   sodipodi:docname="analyze.svg"
   inkscape:version="1.1 (c68e22c387, 2021-05-23)"
   inkscape:export-xdpi="96"
   inkscape:export-ydpi="96"
   xmlns:inkscape="http://www.inkscape.org/namespaces/inkscape"
   xmlns:sodipodi="http://sodipodi.sourceforge.net/DTD/sodipodi-0.dtd"
   xmlns="http://www.w3.org/2000/svg"
   xmlns:svg="http://www.w3.org/2000/svg"
   xmlns:rdf="http://www.w3.org/1999/02/22-rdf-syntax-ns#"
   xmlns:cc="http://creativecommons.org/ns#"
   xmlns:dc="http://purl.org/dc/elements/1.1/">
  <metadata
     id="metadata4572">
    <rdf:RDF>
      <cc:Work
         rdf:about="">
        <dc:format>image/svg+xml</dc:format>
        <dc:type
           rdf:resource="http://purl.org/dc/dcmitype/StillImage" />
      </cc:Work>
    </rdf:RDF>
  </metadata>
  <defs
     id="defs4570" />
  <sodipodi:namedview
     pagecolor="#ffffff"
     bordercolor="#666666"
     borderopacity="1"
     objecttolerance="10"
     gridtolerance="10"
     guidetolerance="10"
     inkscape:pageopacity="0"
     inkscape:pageshadow="2"
     inkscape:window-width="1920"
     inkscape:window-height="1017"
     id="namedview4568"
     showgrid="false"
     inkscape:zoom="26"
     inkscape:cx="8.7115385"
     inkscape:cy="10.211538"
     inkscape:window-x="-8"
     inkscape:window-y="-8"
     inkscape:window-maximized="1"
     inkscape:current-layer="g4564"
     inkscape:pagecheckerboard="0" />
  <linearGradient
     gradientUnits="userSpaceOnUse"
     x1="-10"
     x2="-10"
     y1="15"
     y2="21"
     id="linearGradient4548">
    <stop
       offset="0"
       stop-color="#555753"
       id="stop4544" />
    <stop
       offset="1"
       stop-color="#555753"
       stop-opacity="0"
       id="stop4546" />
  </linearGradient>
  <g
     transform="translate(0,-8)"
     id="g4564">
    <path
       id="rect4562"
       style="fill:#5781ff;fill-opacity:1;stroke:#4c4d4c;stroke-linecap:round"
       d="m 4.0384613,18.269231 c 1.385,0 2.5,1.115 2.5,2.5 0,1.385 -1.115,2.5 -2.5,2.5 -1.385,0 -2.5,-1.115 -2.5,-2.5 0,-1.385 1.115,-2.5 2.5,-2.5 z" />
    <path
       id="rect4562-9-5"
       style="fill:#ff578b;fill-opacity:1;stroke:#4c4d4c;stroke-linecap:round"
       d="m 5.0384611,9.7692299 c 1.3850005,0 2.5000005,1.1150001 2.5000005,2.5000001 0,1.385 -1.115,2.5 -2.5000005,2.5 -1.385,0 -2.5,-1.115 -2.5,-2.5 0,-1.385 1.115,-2.5000001 2.5,-2.5000001 z" />
    <path
       id="rect566"
       style="fill:#5781ff;fill-opacity:1;stroke:#4c4d4c;stroke-linecap:round"
       d="m 13.153846,17.961538 c 1.385,0 2.5,1.115 2.5,2.5 0,1.385 -1.115,2.5 -2.5,2.5 -1.385,0 -2.5,-1.115 -2.5,-2.5 0,-1.385 1.115,-2.5 2.5,-2.5 z" />
    <path
       id="rect568"
       style="fill:#ff578b;fill-opacity:1;stroke:#4c4d4c;stroke-linecap:round"
       d="m 12.961537,11.538459 c 1.385,0 2.5,1.115 2.5,2.5 0,1.385 -1.115,2.5 -2.5,2.5 -1.385,0 -2.5,-1.115 -2.5,-2.5 0,-1.385 1.115,-2.5 2.5,-2.5 z" />
    <path
       id="rect568-1"
       style="fill:#57ff89;fill-opacity:1;stroke:#4c4d4c;stroke-linecap:round"
       d="m 4.4230772,25.115385 c 1.385,0 2.5,1.115 2.5,2.5 0,1.385 -1.115,2.5 -2.5,2.5 -1.385,0 -2.5,-1.115 -2.5,-2.5 0,-1.385 1.115,-2.5 2.5,-2.5 z" />
    <path
       id="rect570"
       style="fill:#5781ff;fill-opacity:1;stroke:#4c4d4c;stroke-linecap:round"
       d="m 20.615385,19.384616 c 1.385,0 2.5,1.115 2.5,2.5 0,1.385 -1.115,2.5 -2.5,2.5 -1.385,0 -2.5,-1.115 -2.5,-2.5 0,-1.385 1.115,-2.5 2.5,-2.5 z" />
    <path
       id="rect572"
       style="fill:#ff578b;fill-opacity:1;stroke:#4c4d4c;stroke-linecap:round"
       d="m 20.461539,10.153847 c 1.385,0 2.5,1.115 2.5,2.5 0,1.385 -1.115,2.5 -2.5,2.5 -1.385,0 -2.5,-1.115 -2.5,-2.5 0,-1.385 1.115,-2.5 2.5,-2.5 z" />
    <path
       id="path1774"
       style="fill:#57ff89;fill-opacity:1;stroke:#4c4d4c;stroke-linecap:round"
       d="m 11.923077,25.884615 c 1.385,0 2.5,1.115 2.5,2.5 0,1.385 -1.115,2.5 -2.5,2.5 -1.385,0 -2.4999998,-1.115 -2.4999998,-2.5 0,-1.385 1.1149998,-2.5 2.4999998,-2.5 z" />
    <path
       id="path1776"
       style="fill:#57ff89;fill-opacity:1;stroke:#4c4d4c;stroke-linecap:round"
       d="m 19.884616,25.5 c 1.385,0 2.5,1.115 2.5,2.5 0,1.385 -1.115,2.5 -2.5,2.5 -1.385,0 -2.5,-1.115 -2.5,-2.5 0,-1.385 1.115,-2.5 2.5,-2.5 z" />
  </g>
</svg>
