<?xml version="1.0" encoding="UTF-8" standalone="no"?>
<svg
   height="24"
   viewBox="0 0 24 24"
   width="24"
   version="1.1"
   id="svg4566"
   sodipodi:docname="cotravel.svg"
   inkscape:version="1.1 (c68e22c387, 2021-05-23)"
   inkscape:export-xdpi="96"
   inkscape:export-ydpi="96"
   xmlns:inkscape="http://www.inkscape.org/namespaces/inkscape"
   xmlns:sodipodi="http://sodipodi.sourceforge.net/DTD/sodipodi-0.dtd"
   xmlns="http://www.w3.org/2000/svg"
   xmlns:svg="http://www.w3.org/2000/svg"
   xmlns:rdf="http://www.w3.org/1999/02/22-rdf-syntax-ns#"
   xmlns:cc="http://creativecommons.org/ns#"
   xmlns:dc="http://purl.org/dc/elements/1.1/">
  <metadata
     id="metadata4572">
    <rdf:RDF>
      <cc:Work
         rdf:about="">
        <dc:format>image/svg+xml</dc:format>
        <dc:type
           rdf:resource="http://purl.org/dc/dcmitype/StillImage" />
      </cc:Work>
    </rdf:RDF>
  </metadata>
  <defs
     id="defs4570" />
  <sodipodi:namedview
     pagecolor="#ffffff"
     bordercolor="#666666"
     borderopacity="1"
     objecttolerance="10"
     gridtolerance="10"
     guidetolerance="10"
     inkscape:pageopacity="0"
     inkscape:pageshadow="2"
     inkscape:window-width="1920"
     inkscape:window-height="1017"
     id="namedview4568"
     showgrid="false"
     inkscape:zoom="33.708333"
     inkscape:cx="11.584673"
     inkscape:cy="12"
     inkscape:window-x="-8"
     inkscape:window-y="-8"
     inkscape:window-maximized="1"
     inkscape:current-layer="g4564"
     inkscape:pagecheckerboard="0" />
  <linearGradient
     gradientUnits="userSpaceOnUse"
     x1="-10"
     x2="-10"
     y1="15"
     y2="21"
     id="linearGradient4548">
    <stop
       offset="0"
       stop-color="#555753"
       id="stop4544" />
    <stop
       offset="1"
       stop-color="#555753"
       stop-opacity="0"
       id="stop4546" />
  </linearGradient>
  <g
     transform="translate(0,-8)"
     id="g4564">
    <path
       style="fill:#ff578b;fill-opacity:1;stroke:none;paint-order:markers stroke fill"
       d="M 8.6432217,20.43756 H 8.2288808 c -0.5508007,0.25307 -1.163627,0.396972 -1.8087074,0.396972 -0.645081,0 -1.2554261,-0.143902 -1.8087079,-0.396972 H 4.1971261 c -1.840962,0 -3.33457225,1.49361 -3.33457225,3.33457 v 1.032131 c 0,0.657485 0.53343215,1.190918 1.19091835,1.190918 h 8.7334008 c 0.657486,0 1.190918,-0.533433 1.190918,-1.190918 V 23.77213 c 0,-1.84096 -1.493609,-3.33457 -3.3345693,-3.33457 z"
       id="path1011" />
    <path
       style="fill:#ff578b;fill-opacity:1;stroke:none;paint-order:markers stroke fill"
       d="m 6.4201734,19.643614 c 1.7541231,0 3.1757833,-1.421659 3.1757833,-3.175782 0,-1.754124 -1.4216602,-3.175783 -3.1757833,-3.175783 -1.7541238,0 -3.1757822,1.421659 -3.1757822,3.175783 0,1.754123 1.4216584,3.175782 3.1757822,3.175782 z"
       id="path2446" />
    <path
       style="fill:#5781ff;fill-opacity:1;stroke:none"
       d="M 20.213061,20.43756 H 19.79872 c -0.550801,0.25307 -1.163627,0.396972 -1.808707,0.396972 -0.645081,0 -1.255426,-0.143902 -1.808708,-0.396972 h -0.41434 c -1.840962,0 -3.334572,1.49361 -3.334572,3.33457 v 1.032131 c 0,0.657485 0.533432,1.190918 1.190918,1.190918 h 8.733402 c 0.657486,0 1.190918,-0.533433 1.190918,-1.190918 V 23.77213 c 0,-1.84096 -1.493609,-3.33457 -3.33457,-3.33457 z"
       id="path1033" />
    <path
       style="fill:#5781ff;fill-opacity:1;stroke:none"
       d="m 17.990013,19.643614 c 1.754123,0 3.175783,-1.421659 3.175783,-3.175782 0,-1.754124 -1.42166,-3.175783 -3.175783,-3.175783 -1.754124,0 -3.175783,1.421659 -3.175783,3.175783 0,1.754123 1.421659,3.175782 3.175783,3.175782 z"
       id="path2615" />
  </g>
</svg>
