<?xml version="1.0" encoding="UTF-8" standalone="no"?>
<svg
   height="24"
   viewBox="0 0 24 24"
   width="24"
   version="1.1"
   id="svg4566"
   sodipodi:docname="synchronous.svg"
   inkscape:version="1.1 (c68e22c387, 2021-05-23)"
   inkscape:export-xdpi="96"
   inkscape:export-ydpi="96"
   xmlns:inkscape="http://www.inkscape.org/namespaces/inkscape"
   xmlns:sodipodi="http://sodipodi.sourceforge.net/DTD/sodipodi-0.dtd"
   xmlns="http://www.w3.org/2000/svg"
   xmlns:svg="http://www.w3.org/2000/svg"
   xmlns:rdf="http://www.w3.org/1999/02/22-rdf-syntax-ns#"
   xmlns:cc="http://creativecommons.org/ns#"
   xmlns:dc="http://purl.org/dc/elements/1.1/">
  <metadata
     id="metadata4572">
    <rdf:RDF>
      <cc:Work
         rdf:about="">
        <dc:format>image/svg+xml</dc:format>
        <dc:type
           rdf:resource="http://purl.org/dc/dcmitype/StillImage" />
      </cc:Work>
    </rdf:RDF>
  </metadata>
  <defs
     id="defs4570" />
  <sodipodi:namedview
     pagecolor="#ffffff"
     bordercolor="#666666"
     borderopacity="1"
     objecttolerance="10"
     gridtolerance="10"
     guidetolerance="10"
     inkscape:pageopacity="0"
     inkscape:pageshadow="2"
     inkscape:window-width="1920"
     inkscape:window-height="1017"
     id="namedview4568"
     showgrid="false"
     inkscape:zoom="26"
     inkscape:cx="8.7115385"
     inkscape:cy="9.6346154"
     inkscape:window-x="-8"
     inkscape:window-y="-8"
     inkscape:window-maximized="1"
     inkscape:current-layer="g4564"
     inkscape:pagecheckerboard="0" />
  <linearGradient
     gradientUnits="userSpaceOnUse"
     x1="-10"
     x2="-10"
     y1="15"
     y2="21"
     id="linearGradient4548">
    <stop
       offset="0"
       stop-color="#555753"
       id="stop4544" />
    <stop
       offset="1"
       stop-color="#555753"
       stop-opacity="0"
       id="stop4546" />
  </linearGradient>
  <g
     transform="translate(0,-8)"
     id="g4564">
    <g
       transform="matrix(1.1115385,0,0,1.1115385,-1.1846153,-2.3076925)"
       id="g26"
       style="stroke:#6e97c4">
      <path
         d="m 2.5,15.5 h 19 v 14 h -19 z"
         id="path2"
         inkscape:connector-curvature="0"
         style="fill:#e6e6e6" />
      <path
         d="m 2.5,10.5 h 19 v 5 h -19 z"
         id="path4"
         inkscape:connector-curvature="0"
         style="fill:#bad9ec" />
      <path
         d="M 5,13 H 9"
         overflow="visible"
         id="path6"
         inkscape:connector-curvature="0"
         style="overflow:visible;fill:none;stroke-width:2" />
      <path
         d="m 11,13 h 7.999999"
         id="path8"
         inkscape:connector-curvature="0"
         style="fill:none;stroke-width:2" />
      <path
         d="m 11,17.776816 h 7.999999"
         id="path12"
         inkscape:connector-curvature="0"
         style="fill:none;stroke-width:1.25952;stroke-miterlimit:4;stroke-dasharray:none" />
      <path
         d="m 11,22.415227 h 7.999999"
         id="path16"
         inkscape:connector-curvature="0"
         style="fill:none;stroke-width:1.25951553;stroke-miterlimit:4;stroke-dasharray:none" />
      <path
         d="m 11,27.192044 h 7.999999"
         id="path24"
         inkscape:connector-curvature="0"
         style="fill:none;stroke-width:1.25951553;stroke-miterlimit:4;stroke-dasharray:none" />
    </g>
    <path
       id="rect4562"
       style="fill:#5781ff;fill-opacity:1;stroke:#4c4d4c;stroke-linecap:round"
       d="m 6.1153834,20.230767 c 1.385,0 2.5,1.115 2.5,2.5 0,1.385 -1.115,2.5 -2.5,2.5 -1.385,0 -2.5,-1.115 -2.5,-2.5 0,-1.385 1.115,-2.5 2.5,-2.5 z" />
    <path
       id="rect4562-9-5"
       style="fill:#ff578b;fill-opacity:1;stroke:#4c4d4c;stroke-linecap:round"
       d="m 6.1153834,25.961537 c 1.3850005,0 2.5000005,1.115 2.5000005,2.5 0,1.385 -1.115,2.5 -2.5000005,2.5 -1.385,0 -2.5,-1.115 -2.5,-2.5 0,-1.385 1.115,-2.5 2.5,-2.5 z" />
    <path
       id="rect568"
       style="fill:#57ff99;fill-opacity:1;stroke:#4c4d4c;stroke-linecap:round"
       d="m 6.1153834,14.499998 c 1.385,0 2.5,1.115 2.5,2.5 0,1.385 -1.115,2.5 -2.5,2.5 -1.385,0 -2.5,-1.115 -2.5,-2.5 0,-1.385 1.115,-2.5 2.5,-2.5 z" />
  </g>
</svg>
