<svg height="24" viewBox="0 0 24 24" width="24" xmlns="http://www.w3.org/2000/svg"><g stroke="#4c4d4c" stroke-linecap="round" transform="translate(0 -8)"><path d="m4.0384613 18.269231c1.385 0 2.5 1.115 2.5 2.5s-1.115 2.5-2.5 2.5-2.5-1.115-2.5-2.5 1.115-2.5 2.5-2.5z" fill="#5781ff"/><path d="m5.0384611 9.7692299c1.3850005 0 2.5000005 1.1150001 2.5000005 2.5000001s-1.115 2.5-2.5000005 2.5c-1.385 0-2.5-1.115-2.5-2.5s1.115-2.5000001 2.5-2.5000001z" fill="#ff578b"/><path d="m13.153846 17.961538c1.385 0 2.5 1.115 2.5 2.5s-1.115 2.5-2.5 2.5-2.5-1.115-2.5-2.5 1.115-2.5 2.5-2.5z" fill="#5781ff"/><path d="m12.961537 11.538459c1.385 0 2.5 1.115 2.5 2.5s-1.115 2.5-2.5 2.5-2.5-1.115-2.5-2.5 1.115-2.5 2.5-2.5z" fill="#ff578b"/><path d="m4.4230772 25.115385c1.385 0 2.5 1.115 2.5 2.5s-1.115 2.5-2.5 2.5-2.5-1.115-2.5-2.5 1.115-2.5 2.5-2.5z" fill="#57ff89"/><path d="m20.615385 19.384616c1.385 0 2.5 1.115 2.5 2.5s-1.115 2.5-2.5 2.5-2.5-1.115-2.5-2.5 1.115-2.5 2.5-2.5z" fill="#5781ff"/><path d="m20.461539 10.153847c1.385 0 2.5 1.115 2.5 2.5s-1.115 2.5-2.5 2.5-2.5-1.115-2.5-2.5 1.115-2.5 2.5-2.5z" fill="#ff578b"/><g fill="#57ff89"><path d="m11.923077 25.884615c1.385 0 2.5 1.115 2.5 2.5s-1.115 2.5-2.5 2.5-2.4999998-1.115-2.4999998-2.5 1.1149998-2.5 2.4999998-2.5z"/><path d="m19.884616 25.5c1.385 0 2.5 1.115 2.5 2.5s-1.115 2.5-2.5 2.5-2.5-1.115-2.5-2.5 1.115-2.5 2.5-2.5z"/></g></g></svg>