<svg height="24" viewBox="0 0 24 24" width="24" xmlns="http://www.w3.org/2000/svg"><g transform="translate(0 -8)"><path d="m8.6432217 20.43756h-.4143409c-.5508007.25307-1.163627.396972-1.8087074.396972-.645081 0-1.2554261-.143902-1.8087079-.396972h-.4143394c-1.840962 0-3.33457225 1.49361-3.33457225 3.33457v1.032131c0 .657485.53343215 1.190918 1.19091835 1.190918h8.7334008c.657486 0 1.190918-.533433 1.190918-1.190918v-1.032131c0-1.84096-1.493609-3.33457-3.3345693-3.33457z" fill="#ff578b"/><path d="m6.4201734 19.643614c1.7541231 0 3.1757833-1.421659 3.1757833-3.175782 0-1.754124-1.4216602-3.175783-3.1757833-3.175783-1.7541238 0-3.1757822 1.421659-3.1757822 3.175783 0 1.754123 1.4216584 3.175782 3.1757822 3.175782z" fill="#ff578b"/><g fill="#5781ff"><path d="m20.213061 20.43756h-.414341c-.550801.25307-1.163627.396972-1.808707.396972-.645081 0-1.255426-.143902-1.808708-.396972h-.41434c-1.840962 0-3.334572 1.49361-3.334572 3.33457v1.032131c0 .657485.533432 1.190918 1.190918 1.190918h8.733402c.657486 0 1.190918-.533433 1.190918-1.190918v-1.032131c0-1.84096-1.493609-3.33457-3.33457-3.33457z"/><path d="m17.990013 19.643614c1.754123 0 3.175783-1.421659 3.175783-3.175782 0-1.754124-1.42166-3.175783-3.175783-3.175783-1.754124 0-3.175783 1.421659-3.175783 3.175783 0 1.754123 1.421659 3.175782 3.175783 3.175782z"/></g></g></svg>