<svg height="24" viewBox="0 0 24 24" width="24" xmlns="http://www.w3.org/2000/svg"><g transform="translate(0 -8)"><g stroke="#6e97c4" transform="matrix(1.1115385 0 0 1.1115385 -1.184615 -2.307693)"><path d="m2.5 15.5h19v14h-19z" fill="#e6e6e6"/><path d="m2.5 10.5h19v5h-19z" fill="#bad9ec"/><g fill="none"><path d="m5 13h4" stroke-width="2"/><path d="m11 13h7.999999" stroke-width="2"/><path d="m11 17.776816h7.999999" stroke-width="1.25952"/><path d="m11 22.415227h7.999999" stroke-width="1.259516"/><path d="m11 27.192044h7.999999" stroke-width="1.259516"/></g></g><g stroke="#4c4d4c" stroke-linecap="round"><path d="m6.1153834 20.230767c1.385 0 2.5 1.115 2.5 2.5s-1.115 2.5-2.5 2.5-2.5-1.115-2.5-2.5 1.115-2.5 2.5-2.5z" fill="#5781ff"/><path d="m6.1153834 25.961537c1.3850005 0 2.5000005 1.115 2.5000005 2.5s-1.115 2.5-2.5000005 2.5c-1.385 0-2.5-1.115-2.5-2.5s1.115-2.5 2.5-2.5z" fill="#ff578b"/><path d="m6.1153834 14.499998c1.385 0 2.5 1.115 2.5 2.5s-1.115 2.5-2.5 2.5-2.5-1.115-2.5-2.5 1.115-2.5 2.5-2.5z" fill="#57ff99"/></g></g></svg>